<svg width="24" height="24" viewBox="0 0 24 24" fill="none" xmlns="http://www.w3.org/2000/svg">
  <path fill="black" d="M19.43 12.98c.04-.32.07-.66.07-1s-.03-.68-.07-1l2.11-1.65a.5.5 0 00.11-.64l-2-3.46a.5.5 0 00-.6-.22l-2.49 1a7.03 7.03 0 00-1.5-.88l-.38-2.65A.5.5 0 0014 2h-4a.5.5 0 00-.5.42l-.38 2.65c-.53.2-1.03.46-1.5.88l-2.49-1a.5.5 0 00-.6.22l-2 3.46a.5.5 0 00.11.64L4.57 10c-.04.32-.07.66-.07 1s.03.68.07 1l-2.11 1.65a.5.5 0 00-.11.64l2 3.46c.14.24.43.34.68.22l2.49-1c.47.42.97.76 1.5.88l.38 2.65a.5.5 0 00.5.42h4c.25 0 .46-.18.5-.42l.38-2.65c.53-.2 1.03-.46 1.5-.88l2.49 1c.25.12.54.02.68-.22l2-3.46a.5.5 0 00-.11-.64l-2.11-1.65zM12 15.5A3.5 3.5 0 1115.5 12 3.5 3.5 0 0112 15.5z"/>
</svg>
